<?xml version="1.0" encoding="UTF-8"?>
<svg xmlns="http://www.w3.org/2000/svg" viewBox="0 0 800 1100" preserveAspectRatio="xMidYMid slice">
  <defs>
    <pattern id="grid" width="28" height="28" patternUnits="userSpaceOnUse">
      <path d="M28 0H0V28" fill="none" stroke="#cbd5e1" stroke-width="1" opacity=".45"/>
    </pattern>
  </defs>
  <rect width="800" height="1100" fill="#fffef8"/>
  <rect width="800" height="1100" fill="url(#grid)"/>
  <g fill="none" stroke="#64748b" stroke-width="2" stroke-linecap="round" opacity=".4">
    <path d="M90 120c20-30 55-20 55 12 0 34-55 52-55 52s-55-18-55-52c0-32 35-42 55-12z"/>
    <path d="M680 160 l18 18 M698 160 l-18 18"/>
    <path d="M720 980c12 0 22 10 22 22s-10 22-22 22-22-10-22-22 10-22 22-22z"/>
    <path d="M70 960 q20 -30 45 -10 q20 25 -5 40" />
    <path d="M650 100 q30 10 20 40"/>
  </g>
  <g fill="#f472b6" opacity=".35">
    <circle cx="140" cy="200" r="4"/><circle cx="700" cy="920" r="5"/>
  </g>
  <text x="660" y="70" font-family="Georgia, serif" font-size="28" fill="#94a3b8" opacity=".35">Dear...</text>
</svg>
